<svg width="47" height="47" viewBox="0 0 47 47" fill="none" xmlns="http://www.w3.org/2000/svg">
<path d="M40.6208 29.4239C40.6208 29.4239 32.9393 27.471 25.2579 27.7314C23.6956 32.0278 23.4352 42.7037 23.4352 42.7037C23.4352 42.7037 22.3936 34.892 18.618 28.2521C15.1028 28.9031 8.46289 32.2881 8.46289 32.2881C8.46289 32.2881 13.0197 28.2521 15.3632 23.435C13.0197 20.4405 6.37979 15.7535 6.37979 15.7535C6.37979 15.7535 12.8895 18.748 18.2274 18.6178C19.269 14.8422 18.618 4.16626 18.618 4.16626C18.618 4.16626 19.269 11.1967 23.5654 17.5762C27.2108 16.6649 36.1942 11.5873 36.1942 11.5873C36.1942 11.5873 31.5072 15.3629 27.992 21.482C31.1166 24.8671 40.6208 29.4239 40.6208 29.4239Z" fill="#59C9DF"/>
</svg>
